<?xml version="1.0" encoding="UTF-8"?>
<svg id="Layer_1" data-name="Layer 1" xmlns="http://www.w3.org/2000/svg" viewBox="0 0 591.5 123">
  <defs>
    <style>
      .cls-1 {
        stroke: #fff;
        stroke-miterlimit: 10;
        stroke-width: .5px;
      }

      .cls-2 {
        stroke-width: 0px;
      }
    </style>
  </defs>
  <g>
    <path class="cls-2" d="M50.35,87.53c2.66,7.13,4.46,9.34,7.7,9.42h1.01v1.43h-20.16v-1.5h1.15c2.66,0,4.03-1.03,4.03-3.01,0-1.19-.22-2.06-1.3-5.07l-2.74-7.76h-17.5l-3.1,8.39c-.72,1.98-1.22,3.88-1.22,4.51,0,1.82,1.66,2.93,4.32,2.93h.86v1.5H7.36v-1.43c4.82-.24,5.54-.95,8.5-8.47l17.14-43.48h.79l16.56,42.53ZM38.9,77.71l-7.7-18.93-7.27,18.93h14.98Z"/>
    <path class="cls-2" d="M70.07,68.13c4.18-4.67,7.56-6.73,11.09-6.73,2.95,0,5.62,1.82,6.7,4.59,1.01,2.38,1.3,4.59,1.3,9.9v12.43c.07,8,.29,8.47,3.67,8.71h1.08v1.35h-15.48v-1.35h1.37c3.38-.24,3.6-.71,3.67-8.71v-12.67c0-7.36-1.08-9.34-5.11-9.34-2.66,0-4.46,1.03-8.28,4.75v17.26c.07,7.84.22,8.32,3.6,8.71h1.44v1.35h-16.2v-1.35h1.3c3.6-.16,4.18-1.27,4.18-8.39v-16.08c0-4.51-.5-5.54-2.66-5.54-.5,0-1.01.08-1.44.24l-.79.32-.5-1.11c5.33-2.45,6.12-2.85,11.09-5.54v7.21Z"/>
    <path class="cls-2" d="M126.67,93.31c-2.23,3.8-4.68,5.62-7.56,5.62-2.3,0-3.67-1.9-4.1-5.7-4.03,4.12-6.91,5.7-10.15,5.7-4.1,0-7.27-3.88-7.27-8.95,0-4.12,2.02-7.36,5.98-9.82,2.81-1.74,4.75-2.61,11.45-5.39v-1.74c0-4.2-.14-5.23-.79-6.81-.79-1.58-2.38-2.53-4.46-2.53-3.02,0-5.11,1.98-5.11,4.99v2.22c0,1.98-1.3,3.48-2.95,3.48s-3.1-1.74-3.1-3.88c0-4.91,5.62-9.11,12.24-9.11,7.13,0,10.15,3.41,10.15,11.32v17.66c0,3.17.29,3.96,1.44,3.96,1.01,0,2.16-.63,3.31-1.9l.94.87ZM115,77.39c-9.07,4.04-11.31,6.1-11.31,10.53,0,3.56,2.09,6.1,5.11,6.1,2.23,0,4.18-1.11,6.19-3.56v-13.07Z"/>
    <path class="cls-2" d="M137.75,61.95h6.84v2.93h-6.84v22.41c0,3.56.29,5.07,1.51,6.18.5.48,1.22.79,1.94.79,1.8,0,3.17-.95,4.75-3.41l1.01.95c-2.23,4.83-4.9,7.13-8.35,7.13-2.81,0-5.11-1.5-6.05-4.04-.72-1.98-.86-3.64-.86-7.92v-22.09h-5.18v-1.5c5.83-2.85,7.7-5.23,9.58-11.64h1.66v10.22Z"/>
    <path class="cls-2" d="M180.81,79.53c0,10.85-7.06,19.4-15.91,19.4s-15.48-7.84-15.48-18.29c0-5.39,1.87-10.53,5.04-14.1,3.17-3.56,6.62-5.15,11.09-5.15,8.86,0,15.27,7.68,15.27,18.14ZM155.9,79.69c0,9.74,4.03,16.47,9.79,16.47,5.26,0,8.64-5.54,8.64-14.18,0-10.53-3.96-17.82-9.79-17.82-5.47,0-8.64,5.7-8.64,15.52Z"/>
    <path class="cls-2" d="M195.28,68.29c4.61-5.15,7.27-6.89,10.73-6.89,3.74,0,6.05,2.22,7.63,7.21,4.9-5.7,7.2-7.21,10.87-7.21,2.81,0,5.4,1.5,6.77,4.04,1.37,2.38,1.51,3.41,1.51,10.53v12.35c.07,8,.22,8.47,3.6,8.71h1.15v1.35h-15.19v-1.35h1.08c3.38-.24,3.6-.71,3.67-8.71v-12.75c0-4.04-.22-5.39-.79-6.65-.86-1.74-2.3-2.61-4.32-2.61-2.59,0-3.96.79-7.99,4.83v17.18c.07,8,.22,8.47,3.6,8.71h1.22v1.35h-15.48v-1.35h1.3c3.38-.24,3.6-.71,3.67-8.71v-12.75c0-4.12-.29-6.02-1.15-7.29-.72-1.27-2.16-1.98-3.89-1.98-2.59,0-5.33,1.66-7.99,4.91v17.11c.07,7.84.22,8.32,3.6,8.71h1.44v1.35h-16.13v-1.35h1.22c3.6-.16,4.18-1.35,4.18-8.39v-16.08c0-4.51-.5-5.54-2.66-5.54-.5,0-1.08.08-1.51.24l-.72.32-.5-1.11c5.33-2.45,6.12-2.85,11.09-5.54v7.37Z"/>
    <path class="cls-2" d="M244.31,74.86q-3.96-11.09-6.41-11.48l-1.08-.08v-1.35h14.19v1.35h-.58c-1.87,0-2.81.79-2.81,2.53,0,.87.36,2.3,1.37,4.99l6.26,17.42,5.69-17.11c.94-2.77,1.37-4.44,1.37-5.54,0-1.58-.94-2.3-2.74-2.3h-.36v-1.35h10.37v1.35l-.72.08c-2.23.55-2.81,1.43-4.68,7.21l-8.93,25.98c-2.09,6.26-3.6,9.34-5.26,11.17-2.02,2.22-4.1,3.25-6.55,3.25-2.66,0-4.82-1.82-4.82-4.04,0-1.98,1.87-3.96,3.82-3.96.86,0,1.8.32,3.46,1.11.5.24.86.32,1.15.32.79,0,1.87-.95,2.81-2.38.65-.95,1.22-2.46,2.09-4.91l-7.63-22.25Z"/>
    <path class="cls-2" d="M335.32,71.93c0,7.68-2.38,14.57-6.84,19.64-4.32,4.99-9.58,7.36-16.27,7.36-13.03,0-22.83-11.56-22.83-27s9.79-26.93,22.83-26.93,23.11,11.48,23.11,26.93ZM297.81,72.01c0,14.1,5.83,23.84,14.33,23.84,8.93,0,14.76-9.5,14.76-23.92s-5.98-23.84-14.76-23.84-14.33,9.66-14.33,23.92Z"/>
    <path class="cls-2" d="M344.61,61.95c.22-5.86.94-8.87,2.59-11.64,2.16-3.56,5.69-5.54,9.86-5.54s8.14,3.01,8.14,6.26c0,1.58-1.44,3.09-2.88,3.09s-1.44-.08-3.82-3.64c-1.15-1.74-2.52-2.61-4.03-2.61-2.23,0-3.46,1.58-3.82,4.83q-.29,1.9-.36,9.27h6.19v2.93h-6.19v23.76c0,7.13.58,8.24,4.18,8.39h1.22v1.35h-16.2v-1.35h1.01c3.53-.16,4.1-1.27,4.1-8.39v-23.76h-5.11v-2.93h5.11Z"/>
    <path class="cls-2" d="M419.34,87.53c2.66,7.13,4.46,9.34,7.7,9.42h1.01v1.43h-20.16v-1.5h1.15c2.66,0,4.03-1.03,4.03-3.01,0-1.19-.22-2.06-1.3-5.07l-2.74-7.76h-17.5l-3.1,8.39c-.72,1.98-1.22,3.88-1.22,4.51,0,1.82,1.66,2.93,4.32,2.93h.86v1.5h-16.06v-1.43c4.82-.24,5.54-.95,8.5-8.47l17.14-43.48h.79l16.56,42.53ZM407.89,77.71l-7.7-18.93-7.27,18.93h14.98Z"/>
    <path class="cls-2" d="M511.79,93.31c-2.23,3.8-4.68,5.62-7.56,5.62-2.3,0-3.67-1.9-4.1-5.7-4.03,4.12-6.91,5.7-10.15,5.7-4.1,0-7.27-3.88-7.27-8.95,0-4.12,2.02-7.36,5.98-9.82,2.81-1.74,4.75-2.61,11.45-5.39v-1.74c0-4.2-.14-5.23-.79-6.81-.79-1.58-2.38-2.53-4.46-2.53-3.02,0-5.11,1.98-5.11,4.99v2.22c0,1.98-1.3,3.48-2.95,3.48s-3.1-1.74-3.1-3.88c0-4.91,5.62-9.11,12.24-9.11,7.13,0,10.15,3.41,10.15,11.32v17.66c0,3.17.29,3.96,1.44,3.96,1.01,0,2.16-.63,3.31-1.9l.94.87ZM500.12,77.39c-9.07,4.04-11.31,6.1-11.31,10.53,0,3.56,2.09,6.1,5.11,6.1,2.23,0,4.18-1.11,6.19-3.56v-13.07Z"/>
    <path class="cls-2" d="M524.1,88.64c0,7.13.58,8.24,4.18,8.39h1.15v1.35h-16.35v-1.35h1.15c3.6-.16,4.18-1.27,4.18-8.39v-32.63c0-3.25-.07-3.88-.65-4.67-.43-.63-1.15-.95-2.02-.95-.43,0-1.01.08-1.44.32l-.79.24-.43-1.11c5.33-2.46,6.12-2.85,11.02-5.54v44.35Z"/>
    <path class="cls-2" d="M542.24,88.64c0,7.13.58,8.24,4.1,8.39h1.01v1.35h-15.99v-1.35h1.01c3.6-.16,4.18-1.27,4.18-8.39v-32.63c0-4.59-.5-5.62-2.66-5.62-.36,0-.94.08-1.44.32l-.79.24-.43-1.11c5.33-2.46,6.05-2.85,11.02-5.54v33.26l8.5-10.45c.72-.87,1.15-1.74,1.15-2.3,0-.87-.65-1.43-1.8-1.5h-.36v-1.35h12.82v1.35l-.94.08c-3.46.32-4.9,1.27-8.14,5.23l-6.55,7.68,8.5,12.91c4.1,6.49,5.76,7.84,9.5,7.84v1.35h-15.19v-1.35h.72c.94,0,1.44-.4,1.44-1.19,0-.48-.5-1.66-1.22-2.69l-8.42-13.15v8.63Z"/>
  </g>
  <path class="cls-1" d="M568.41,42c-.1.1-.4-.1-.6-.4-2.5-4.1-6.4-4.8-11.4-5-14.4-.5-35.8,16.3-53.9,32.7-11.2,10.2-21.1,19.6-30.2,26.5-5.3,3.9-10.9,6.9-14.2,6.9-1.7,0-2.8-1.1-2.8-2.6-.2-2,1-5.2,5.5-11.2,6-7.4,14-16.1,20.5-23,5.7-6.1,9.7-10.9,13.5-16.1.5-.7,1.2-1.6,1-2-.3-.3-1.9.8-4,2.2-8.9,6.2-17.5,13.7-24.7,19.3-12.8,10-23.7,19.6-34.1,26.5-5.2,3.6-11.7,6.9-15.1,6.9-1.6,0-2.5-1.1-2.3-2.6.2-2.1,1.5-5.2,7.6-11.2,7.2-7.1,16.1-15.4,23.4-22.8,5.6-5.6,12.2-12.7,16.8-18.4,2.6-3.2,4.1-5.2,5.2-7.2-4.7-.8-10.3-1.3-19.3-1.1-12.3.2-27,4.5-39,12.5-10.9,7.1-16.9,16.8-17.1,23.8-.4,10.8,4.4,14.5,7.2,16.6.5.3,1.2.6,1.1,1-.1.5-.7.3-1.1.2-4.4-2.4-9.6-7.4-9-18.1.4-8.3,6.2-19.3,17.1-26.5,12.1-8,26.9-11.5,40.7-11.5,9.6,0,16,.9,20.1,1.7.6-1.2,1-2.4,1.6-3.9.5-1.2,1.7,1.8,1.4,4.6,2.2.4,6.3,1.8,7.7,2.7.8.5,1.4,1,.9,1.5-.2.2-.7-.2-1.6-.6-1.7-.9-4.6-1.8-7.4-2.3-.7,2.9-2.6,6.5-4.8,9.6-5.2,7.2-11.5,13.4-19.2,21.1-6.6,6.5-15.1,13.4-21.7,19.4-5.1,4.6-7.7,7.2-8.1,8.9-.1.5.1.9.6,1,1.6.3,6.6-1.5,14-7.1,8.8-6.7,20.4-16.3,31.2-25,9.9-7.8,18.8-14.9,26.9-20.5,2.5-1.6,9.5-6.5,11.3-4.9,1.4,1.2-.3,3.8-2.5,7.1-3,4.6-10.1,13.1-17.1,21.1-5.8,6.6-12.4,13.4-18.2,19.4-4.4,4.6-6.3,7.2-6.5,8.9,0,.5.2.9.8,1,1.7.3,6.2-1.3,12.9-6.8,8-6.5,18.3-16.3,27.8-25.3,19.7-18.5,41.7-36.6,57.3-36,6.2.3,10.5,3,12,8.3.1.2.2.6-.2.7Z"/>
</svg>